<?xml version="1.0" standalone="no"?><!DOCTYPE svg PUBLIC "-//W3C//DTD SVG 1.1//EN" "http://www.w3.org/Graphics/SVG/1.1/DTD/svg11.dtd"><svg t="1564314060796" class="icon" viewBox="0 0 1024 1024" version="1.1" xmlns="http://www.w3.org/2000/svg" p-id="8657" xmlns:xlink="http://www.w3.org/1999/xlink" width="64" height="64"><defs><style type="text/css"></style></defs><path d="M504.412022 0.063996a504.032498 504.032498 0 1 0 0.063996 1008.001A504.032498 504.032498 0 0 0 504.412022 0.063996z m145.014937 587.227298a35.1978 35.1978 0 0 1 35.645772 35.645772 35.1978 35.1978 0 0 1-35.645772 35.645773H540.185786v67.643772c0 19.646772-15.999 35.645772-35.645772 35.645772a35.1978 35.1978 0 0 1-35.645772-35.645772V658.582839H359.653069a35.1978 35.1978 0 0 1-35.709768-35.645773 35.1978 35.1978 0 0 1 35.709768-35.645772H468.894242v-51.772764H359.653069a35.1978 35.1978 0 0 1-35.709768-35.645772 35.1978 35.1978 0 0 1 35.709768-35.645772h105.273421l-111.353041-111.353041a34.493844 34.493844 0 0 1-10.687332-25.086432c0-10.047372 3.903756-19.262796 10.815324-25.214424l0.063996-0.127992 0.127992-0.127992a34.55784 34.55784 0 0 1 24.63846-10.23936c9.983376 0 19.1988 3.967752 25.214425 10.687332l0.127992 0.255984 100.537716 99.769765 100.025748-100.921693a34.045872 34.045872 0 0 1 25.086432-10.687332c10.111368 0 19.1988 3.967752 25.150429 10.815324l0.127992 0.127992 0.127992 0.063996a36.029748 36.029748 0 0 1 10.23936 25.790388 33.27792 33.27792 0 0 1-10.687332 23.934504l-0.255984 0.255984L543.769562 464.098994h105.593401a35.1978 35.1978 0 0 1 35.581776 35.645772 35.1978 35.1978 0 0 1-35.645772 35.645772H540.057794v51.772764h109.369165v0.127992z" p-id="8658"></path></svg>